<svg width="200" height="226" viewBox="0 0 200 226" fill="none" xmlns="http://www.w3.org/2000/svg">
<g filter="url(#filter0_d_983_2764)">
<path d="M83.1087 156H91.6671V114.333H108.334V156H116.892C117.992 145.983 123.1 137.725 131.392 128.692C132.334 127.675 138.325 121.467 139.034 120.583C144.919 113.23 148.609 104.364 149.676 95.0065C150.744 85.6486 149.147 76.1795 145.069 67.6895C140.991 59.1996 134.598 52.034 126.626 47.0182C118.654 42.0023 109.428 39.3401 100.009 39.3381C90.5908 39.3361 81.3632 41.9943 73.3892 47.0068C65.4152 52.0193 59.0192 59.1821 54.9376 67.6703C50.856 76.1585 49.2549 85.627 50.3187 94.9853C51.3824 104.344 55.0678 113.211 60.9504 120.567C61.6671 121.458 67.6754 127.675 68.6004 128.683C76.9004 137.717 82.0087 145.983 83.1087 156ZM83.3337 172.667V181H116.667V172.667H83.3337ZM47.9504 131C40.102 121.194 35.1833 109.371 33.7609 96.8914C32.3386 84.4123 34.4704 71.7851 39.9108 60.4646C45.3513 49.144 53.879 39.5906 64.5117 32.9049C75.1444 26.2192 87.4494 22.673 100.009 22.675C112.569 22.6771 124.873 26.2271 135.504 32.9163C146.134 39.6054 154.659 49.1615 160.096 60.4838C165.533 71.8061 167.66 84.4339 166.234 96.9127C164.808 109.391 159.885 121.213 152.034 131.017C146.867 137.45 133.334 147.667 133.334 160.167V181C133.334 185.42 131.578 189.66 128.452 192.785C125.327 195.911 121.087 197.667 116.667 197.667H83.3337C78.9134 197.667 74.6742 195.911 71.5486 192.785C68.423 189.66 66.6671 185.42 66.6671 181V160.167C66.6671 147.667 53.1254 137.45 47.9504 131Z" fill="url(#paint0_linear_983_2764)"/>
</g>
<defs>
<filter id="filter0_d_983_2764" x="12.532" y="0.87505" width="182.933" height="224.592" filterUnits="userSpaceOnUse" color-interpolation-filters="sRGB">
<feFlood flood-opacity="0" result="BackgroundImageFix"/>
<feColorMatrix in="SourceAlpha" type="matrix" values="0 0 0 0 0 0 0 0 0 0 0 0 0 0 0 0 0 0 127 0" result="hardAlpha"/>
<feOffset dx="4" dy="3"/>
<feGaussianBlur stdDeviation="12.4"/>
<feComposite in2="hardAlpha" operator="out"/>
<feColorMatrix type="matrix" values="0 0 0 0 1 0 0 0 0 1 0 0 0 0 1 0 0 0 0.25 0"/>
<feBlend mode="normal" in2="BackgroundImageFix" result="effect1_dropShadow_983_2764"/>
<feBlend mode="normal" in="SourceGraphic" in2="effect1_dropShadow_983_2764" result="shape"/>
</filter>
<linearGradient id="paint0_linear_983_2764" x1="49.8114" y1="110.171" x2="141.572" y2="110.171" gradientUnits="userSpaceOnUse">
<stop stop-color="#7F7D89"/>
<stop offset="1" stop-color="#F8F7F8"/>
</linearGradient>
</defs>
</svg>
