<svg width="140" height="27" viewBox="0 0 140 27" fill="none" xmlns="http://www.w3.org/2000/svg">
<path d="M102.262 4.93039C104.386 4.93039 106.417 6.33907 106.795 8.68687L113.878 8.40513C113.075 3.14606 108.825 0 102.545 0C95.3674 0 91.212 2.95823 91.212 7.88862C91.212 12.4434 94.9896 14.1807 101.931 15.4955L102.228 15.5588C104.533 16.0496 106.749 16.5214 106.795 18.5476C106.842 20.3789 104.67 21.1302 102.781 21.1302C99.9478 21.1302 98.1534 19.6746 97.7284 17.2798L90.5982 17.6085C90.9759 22.9146 95.6507 26.0606 102.97 26.0606C109.392 26.0606 114.067 23.6658 114.067 18.6885C114.067 13.9929 110.478 12.0677 103.112 10.9408C100.703 10.5182 98.5784 9.7199 98.4839 7.88862C98.3895 6.05733 100.089 4.93039 102.262 4.93039Z" fill="white"/>
<path fill-rule="evenodd" clip-rule="evenodd" d="M12.0411 0.0469551C5.47754 0.0469551 1.36939 3.00519 0.424981 8.31122L7.50801 8.63991C8.07465 6.01037 9.5857 4.64865 11.9939 4.64865C14.9688 4.64865 16.3382 6.38602 16.3854 10.0016L9.49125 11.4103C3.44707 12.5842 0 14.3216 0 18.9233C0 23.3372 3.87205 26.0606 8.97183 26.0606C13.5522 26.0606 16.3382 24.2763 17.6131 21.6937C18.2347 25.7997 22.5716 25.6299 24.4615 25.5559C24.5816 25.5512 24.6918 25.5469 24.7906 25.5441L26.0183 25.4971V22.1717C25.1952 22.1516 24.403 21.9784 23.642 21.652C22.8663 21.3041 22.1787 20.8346 21.5793 20.2433C21.0151 19.652 20.5567 18.9737 20.2041 18.2085C19.8515 17.4085 19.6752 16.5564 19.6752 15.652C19.6752 14.7129 19.8515 13.8433 20.2041 13.0433C20.5567 12.2434 21.0151 11.5651 21.5793 11.0086C22.1489 10.4467 22.7981 10.0105 23.5268 9.69985C23.1174 3.35693 19.2225 0.0469551 12.0411 0.0469551ZM11.1912 21.5059C8.59407 21.5059 7.27191 20.285 7.27191 18.6885C7.27191 16.1529 9.39681 15.6833 12.3717 15.1198L16.4798 14.3686V14.6972C16.4798 19.205 14.2605 21.4589 11.1912 21.5059Z" fill="white"/>
<path d="M27.4932 22.0553C27.9565 21.9685 28.4005 21.8341 28.8252 21.652C29.6362 21.3041 30.3237 20.8346 30.8879 20.2433C31.4873 19.652 31.9457 18.9737 32.263 18.2085C32.6156 17.4085 32.7919 16.5564 32.7919 15.652C32.7919 14.7129 32.6156 13.8433 32.263 13.0433C31.9457 12.2434 31.4873 11.5651 30.8879 11.0086C30.3237 10.4173 29.6362 9.96512 28.8252 9.65208C28.4005 9.46994 27.9565 9.33549 27.4932 9.24873V0.610429H33.8679L34.0096 4.55474C35.2845 1.69042 37.7872 0.0469551 40.9982 0.0469551C44.4925 0.0469551 46.9951 1.9252 48.1284 5.16516C49.4034 1.78433 52.0005 0.0469551 55.4475 0.0469551C60.5001 0.0469551 63.7583 3.28692 63.7583 9.48512V25.4971H56.6753V11.8329C56.6753 7.70079 55.4948 5.63473 53.1338 5.63473C50.2061 5.63473 48.7423 7.7947 48.7423 11.8329V25.4971H42.462V11.8329C42.462 7.70079 41.3287 5.63473 38.9205 5.63473C36.0401 5.63473 34.5762 7.7947 34.5762 11.8329V25.4971H27.4932V22.0553Z" fill="white"/>
<path d="M89.0539 25.4971H82.5848L82.4431 21.5998C81.0737 24.8397 78.3349 26.0606 75.0768 26.0606C69.7409 26.0606 66.5771 22.398 66.5771 16.6224V0.610429H73.6601V14.2746C73.6601 18.2659 74.5101 20.4728 77.4378 20.4728C80.3654 20.4728 81.9709 18.2659 81.9709 14.2746V0.610429H89.0539V25.4971Z" fill="white"/>
<path fill-rule="evenodd" clip-rule="evenodd" d="M114.926 13.0538C114.926 5.21212 119.978 0.0469551 127.77 0.0469551C134.711 0.0469551 140.047 4.83647 140 13.5703V14.8851H122.339C122.528 18.5946 124.559 20.8485 127.77 20.8485C129.8 20.8485 131.689 19.6276 132.492 17.7494L139.669 18.2189C138.158 23.0554 133.483 26.0606 127.77 26.0606C119.978 26.0606 114.926 20.8954 114.926 13.0538ZM122.387 10.6121H132.822C132.444 6.85558 130.272 5.25908 127.77 5.25908C124.748 5.25908 122.764 7.27819 122.387 10.6121Z" fill="white"/>
<path d="M24.1597 20.452C24.8085 20.7302 25.4855 20.8693 26.1907 20.8693C26.9523 20.8693 27.6575 20.7302 28.3063 20.452C28.9551 20.1737 29.5051 19.798 29.9565 19.325C30.436 18.852 30.8027 18.3094 31.0566 17.6972C31.3387 17.0572 31.4797 16.3755 31.4797 15.652C31.4797 14.9007 31.3387 14.2051 31.0566 13.5651C30.8027 12.9251 30.436 12.3825 29.9565 11.9373C29.5051 11.4642 28.9551 11.1025 28.3063 10.852C27.6575 10.5738 26.9523 10.4347 26.1907 10.4347C25.4855 10.4347 24.8085 10.5738 24.1597 10.852C23.5392 11.1025 22.9891 11.4642 22.5096 11.9373C22.0582 12.3825 21.6915 12.9251 21.4094 13.5651C21.1274 14.2051 20.9863 14.9007 20.9863 15.652C20.9863 16.3755 21.1274 17.0572 21.4094 17.6972C21.6915 18.3094 22.0582 18.852 22.5096 19.325C22.9891 19.798 23.5392 20.1737 24.1597 20.452Z" fill="#FCA745"/>
</svg>
