<svg width="1397" height="260" viewBox="0 0 1397 260" fill="none" xmlns="http://www.w3.org/2000/svg">
<path d="M1020.24 49.1892C1041.44 49.1892 1061.69 63.2432 1065.46 86.6667L1136.13 83.8559C1128.12 31.3874 1085.72 0 1023.06 0C951.456 0 909.999 29.5135 909.999 78.7027C909.999 124.144 947.687 141.477 1016.94 154.595L1019.9 155.226C1042.9 160.122 1065.01 164.83 1065.46 185.045C1065.93 203.315 1044.26 210.811 1025.42 210.811C997.153 210.811 979.251 196.288 975.011 172.396L903.875 175.676C907.644 228.613 954.283 260 1027.3 260C1091.37 260 1138.01 236.108 1138.01 186.45C1138.01 139.604 1102.21 120.396 1028.72 109.153C1004.69 104.937 983.491 96.973 982.549 78.7027C981.607 60.4324 998.567 49.1892 1020.24 49.1892Z" fill="#27212E"/>
<path fill-rule="evenodd" clip-rule="evenodd" d="M120.131 0.468459C54.648 0.468459 13.662 29.982 4.23993 82.9189L74.9055 86.1982C80.5587 59.964 95.634 46.3784 119.66 46.3784C149.34 46.3784 163.002 63.7117 163.473 99.7838L94.6918 113.838C34.3906 125.55 0 142.883 0 188.793C0 232.829 38.6305 260 89.5097 260C135.207 260 163.002 242.198 175.722 216.432C181.923 257.397 225.192 255.703 244.046 254.965C245.244 254.918 246.344 254.875 247.329 254.847L259.578 254.378V221.201C251.366 221.001 243.463 219.273 235.87 216.016C228.131 212.546 221.271 207.861 215.291 201.962C209.662 196.063 205.089 189.296 201.571 181.662C198.054 173.68 196.295 165.178 196.295 156.156C196.295 146.787 198.054 138.111 201.571 130.13C205.089 122.149 209.662 115.382 215.291 109.83C220.974 104.224 227.45 99.8719 234.721 96.7729C230.636 33.4913 191.778 0.468459 120.131 0.468459ZM111.652 214.559C85.7409 214.559 72.5499 202.378 72.5499 186.45C72.5499 161.153 93.7496 156.468 123.429 150.847L164.415 143.351V146.631C164.415 191.604 142.273 214.09 111.652 214.559Z" fill="#27212E"/>
<path d="M274.293 220.04C278.915 219.174 283.345 217.833 287.582 216.016C295.673 212.546 302.532 207.861 308.161 201.962C314.141 196.063 318.714 189.296 321.88 181.662C325.398 173.68 327.157 165.178 327.157 156.156C327.157 146.787 325.398 138.111 321.88 130.13C318.714 122.149 314.141 115.382 308.161 109.83C302.532 103.931 295.673 99.4194 287.582 96.2963C283.345 94.4792 278.915 93.1378 274.293 92.2722V6.09009H337.892L339.305 45.4415C352.025 16.8649 376.993 0.468459 409.028 0.468459C443.89 0.468459 468.858 19.2072 480.165 51.5315C492.885 17.8018 518.795 0.468459 553.186 0.468459C603.594 0.468459 636.1 32.7928 636.1 94.6306V254.378H565.435V118.054C565.435 76.8288 553.657 56.2162 530.102 56.2162C500.894 56.2162 486.289 77.7658 486.289 118.054V254.378H423.633V118.054C423.633 76.8288 412.326 56.2162 388.3 56.2162C359.562 56.2162 344.958 77.7658 344.958 118.054V254.378H274.293V220.04Z" fill="#27212E"/>
<path d="M888.468 254.378H823.927L822.514 215.495C808.852 247.82 781.528 260 749.022 260C695.787 260 664.223 223.459 664.223 165.838V6.09009H734.888V142.414C734.888 182.234 743.368 204.252 772.577 204.252C801.785 204.252 817.803 182.234 817.803 142.414V6.09009H888.468V254.378Z" fill="#27212E"/>
<path fill-rule="evenodd" clip-rule="evenodd" d="M1146.59 130.234C1146.59 52 1196.99 0.468459 1274.73 0.468459C1343.98 0.468459 1397.21 48.2523 1396.74 135.387V148.505H1220.55C1222.43 185.514 1242.69 208 1274.73 208C1294.98 208 1313.83 195.82 1321.84 177.081L1393.44 181.766C1378.37 230.018 1331.73 260 1274.73 260C1196.99 260 1146.59 208.468 1146.59 130.234ZM1221.02 105.874H1325.13C1321.36 68.3964 1299.69 52.4685 1274.73 52.4685C1244.57 52.4685 1224.79 72.6126 1221.02 105.874Z" fill="#27212E"/>
<path d="M241.04 204.045C247.513 206.821 254.267 208.209 261.303 208.209C268.901 208.209 275.937 206.821 282.409 204.045C288.882 201.269 294.37 197.521 298.873 192.802C303.657 188.082 307.315 182.669 309.848 176.561C312.662 170.176 314.07 163.375 314.07 156.157C314.07 148.662 312.662 141.721 309.848 135.336C307.315 128.951 303.657 123.538 298.873 119.096C294.37 114.377 288.882 110.768 282.409 108.269C275.937 105.493 268.901 104.105 261.303 104.105C254.267 104.105 247.513 105.493 241.04 108.269C234.849 110.768 229.361 114.377 224.577 119.096C220.074 123.538 216.415 128.951 213.601 135.336C210.787 141.721 209.38 148.662 209.38 156.157C209.38 163.375 210.787 170.176 213.601 176.561C216.415 182.669 220.074 188.082 224.577 192.802C229.361 197.521 234.849 201.269 241.04 204.045Z" fill="#35303A"/>
</svg>
