<svg width="200" height="200" viewBox="0 0 200 200" fill="none" xmlns="http://www.w3.org/2000/svg">
<g clip-path="url(#clip0_983_2764)">
<g filter="url(#filter0_d_983_2764)">
<path d="M83.1087 150H91.6671V108.333H108.334V150H116.892C117.992 139.983 123.1 131.725 131.392 122.692C132.334 121.675 138.325 115.467 139.034 114.583C144.919 107.23 148.609 98.3643 149.676 89.0065C150.744 79.6486 149.147 70.1795 145.069 61.6895C140.991 53.1996 134.598 46.034 126.626 41.0182C118.654 36.0023 109.428 33.3401 100.009 33.3381C90.5908 33.3361 81.3632 35.9943 73.3892 41.0068C65.4152 46.0193 59.0192 53.1821 54.9376 61.6703C50.856 70.1585 49.2549 79.627 50.3187 88.9853C51.3824 98.3436 55.0678 107.211 60.9504 114.567C61.6671 115.458 67.6754 121.675 68.6004 122.683C76.9004 131.717 82.0087 139.983 83.1087 150ZM83.3337 166.667V175H116.667V166.667H83.3337ZM47.9504 125C40.102 115.194 35.1833 103.371 33.7609 90.8914C32.3386 78.4123 34.4704 65.7851 39.9108 54.4646C45.3513 43.144 53.879 33.5906 64.5117 26.9049C75.1444 20.2192 87.4494 16.673 100.009 16.675C112.569 16.6771 124.873 20.2271 135.504 26.9163C146.134 33.6054 154.659 43.1615 160.096 54.4838C165.533 65.8061 167.66 78.4339 166.234 90.9127C164.808 103.391 159.885 115.213 152.034 125.017C146.867 131.45 133.334 141.667 133.334 154.167V175C133.334 179.42 131.578 183.66 128.452 186.785C125.327 189.911 121.087 191.667 116.667 191.667H83.3337C78.9134 191.667 74.6742 189.911 71.5486 186.785C68.423 183.66 66.6671 179.42 66.6671 175V154.167C66.6671 141.667 53.1254 131.45 47.9504 125Z" fill="url(#paint0_linear_983_2764)"/>
</g>
</g>
<defs>
<filter id="filter0_d_983_2764" x="12.532" y="-5.12495" width="182.933" height="224.592" filterUnits="userSpaceOnUse" color-interpolation-filters="sRGB">
<feFlood flood-opacity="0" result="BackgroundImageFix"/>
<feColorMatrix in="SourceAlpha" type="matrix" values="0 0 0 0 0 0 0 0 0 0 0 0 0 0 0 0 0 0 127 0" result="hardAlpha"/>
<feOffset dx="4" dy="3"/>
<feGaussianBlur stdDeviation="12.4"/>
<feComposite in2="hardAlpha" operator="out"/>
<feColorMatrix type="matrix" values="0 0 0 0 1 0 0 0 0 1 0 0 0 0 1 0 0 0 0.25 0"/>
<feBlend mode="normal" in2="BackgroundImageFix" result="effect1_dropShadow_983_2764"/>
<feBlend mode="normal" in="SourceGraphic" in2="effect1_dropShadow_983_2764" result="shape"/>
</filter>
<linearGradient id="paint0_linear_983_2764" x1="49.8114" y1="104.171" x2="141.572" y2="104.171" gradientUnits="userSpaceOnUse">
<stop stop-color="#7F7D89"/>
<stop offset="1" stop-color="#F8F7F8"/>
</linearGradient>
<clipPath id="clip0_983_2764">
<rect width="200" height="200" fill="white"/>
</clipPath>
</defs>
</svg>
