<svg width="362" height="222" viewBox="0 0 362 222" fill="none" xmlns="http://www.w3.org/2000/svg">
<rect width="362" height="73" rx="15.3684" fill="white" fill-opacity="0.11"/>
<rect x="0.960526" y="0.960526" width="360.079" height="71.0789" rx="14.4079" stroke="url(#paint0_linear_983_2874)" stroke-opacity="0.07" stroke-width="1.92105"/>
<rect x="76.7344" y="43.2236" width="5.7551" height="15.3684" rx="2.87755" fill="#70E366"/>
<rect x="88.2441" y="43.2236" width="5.7551" height="15.3684" rx="2.87755" fill="#70E366"/>
<rect x="99.7548" y="43.2236" width="5.7551" height="15.3684" rx="2.87755" fill="#70E366"/>
<rect x="111.265" y="43.2236" width="5.7551" height="15.3684" rx="2.87755" fill="white" fill-opacity="0.12"/>
<rect x="122.775" y="43.2236" width="5.7551" height="15.3684" rx="2.87755" fill="white" fill-opacity="0.12"/>
<rect x="134.285" y="43.2236" width="5.7551" height="15.3684" rx="2.87755" fill="white" fill-opacity="0.12"/>
<rect x="145.796" y="43.2236" width="5.7551" height="15.3684" rx="2.87755" fill="white" fill-opacity="0.12"/>
<rect x="7.67383" y="7.6842" width="57.551" height="57.6316" rx="11.5263" fill="url(#paint1_linear_983_2874)"/>
<rect x="8.15409" y="8.16447" width="56.5905" height="56.6711" rx="11.0461" stroke="url(#paint2_linear_983_2874)" stroke-opacity="0.3" stroke-width="0.960526"/>
<rect x="77" y="15" width="229" height="18" rx="3" fill="white" fill-opacity="0.05"/>
<rect x="33" y="84" width="297" height="60" rx="12.6414" fill="white" fill-opacity="0.11"/>
<rect x="33.7901" y="84.7901" width="295.42" height="58.4198" rx="11.8513" stroke="url(#paint3_linear_983_2874)" stroke-opacity="0.07" stroke-width="1.58017"/>
<rect x="96.0771" y="119.554" width="4.7339" height="12.6414" rx="2.36695" fill="#70E366"/>
<rect x="105.545" y="119.554" width="4.7339" height="12.6414" rx="2.36695" fill="#403847"/>
<rect x="115.013" y="119.554" width="4.7339" height="12.6414" rx="2.36695" fill="#403847"/>
<rect x="124.48" y="119.554" width="4.7339" height="12.6414" rx="2.36695" fill="white" fill-opacity="0.12"/>
<rect x="133.948" y="119.554" width="4.7339" height="12.6414" rx="2.36695" fill="white" fill-opacity="0.12"/>
<rect x="143.416" y="119.554" width="4.7339" height="12.6414" rx="2.36695" fill="white" fill-opacity="0.12"/>
<rect x="152.884" y="119.554" width="4.7339" height="12.6414" rx="2.36695" fill="white" fill-opacity="0.12"/>
<rect x="39.2705" y="90.3207" width="47.339" height="47.4053" rx="9.48" fill="url(#paint4_linear_983_2874)"/>
<rect x="39.7705" y="90.8207" width="46.339" height="46.4053" rx="8.98" stroke="url(#paint5_linear_983_2874)" stroke-opacity="0.3"/>
<rect x="96" y="99" width="186" height="14" rx="3" fill="white" fill-opacity="0.05"/>
<rect x="56" y="158" width="250" height="49" rx="10.309" fill="white" fill-opacity="0.11"/>
<rect x="56.6443" y="158.644" width="248.711" height="47.7114" rx="9.66472" stroke="url(#paint6_linear_983_2874)" stroke-opacity="0.07" stroke-width="1.28863"/>
<rect x="107.398" y="186.994" width="3.86049" height="10.309" rx="1.93024" fill="#70E366"/>
<rect x="115.119" y="186.994" width="3.86049" height="10.309" rx="1.93024" fill="#70E366"/>
<rect x="122.841" y="186.994" width="3.86049" height="10.309" rx="1.93024" fill="#403847"/>
<rect x="130.561" y="186.994" width="3.86049" height="10.309" rx="1.93024" fill="white" fill-opacity="0.12"/>
<rect x="138.282" y="186.994" width="3.86049" height="10.309" rx="1.93024" fill="white" fill-opacity="0.12"/>
<rect x="146.003" y="186.994" width="3.86049" height="10.309" rx="1.93024" fill="white" fill-opacity="0.12"/>
<rect x="153.725" y="186.994" width="3.86049" height="10.309" rx="1.93024" fill="white" fill-opacity="0.12"/>
<rect x="61.0721" y="163.155" width="38.6049" height="38.6589" rx="7.73" fill="url(#paint7_linear_983_2874)"/>
<rect x="61.5721" y="163.655" width="37.6049" height="37.6589" rx="7.23" stroke="url(#paint8_linear_983_2874)" stroke-opacity="0.3"/>
<rect x="108" y="170" width="136" height="12" rx="3" fill="white" fill-opacity="0.05"/>
<defs>
<linearGradient id="paint0_linear_983_2874" x1="181" y1="0" x2="181" y2="73" gradientUnits="userSpaceOnUse">
<stop stop-color="white"/>
<stop offset="1" stop-color="white" stop-opacity="0"/>
</linearGradient>
<linearGradient id="paint1_linear_983_2874" x1="36.4493" y1="7.6842" x2="36.4493" y2="65.3158" gradientUnits="userSpaceOnUse">
<stop stop-color="#F62F4C"/>
<stop offset="1" stop-color="#EE573C"/>
</linearGradient>
<linearGradient id="paint2_linear_983_2874" x1="36.4493" y1="7.6842" x2="36.4493" y2="65.3158" gradientUnits="userSpaceOnUse">
<stop stop-color="white"/>
<stop offset="1" stop-color="white" stop-opacity="0"/>
</linearGradient>
<linearGradient id="paint3_linear_983_2874" x1="181.5" y1="84" x2="181.5" y2="144" gradientUnits="userSpaceOnUse">
<stop stop-color="white"/>
<stop offset="1" stop-color="white" stop-opacity="0"/>
</linearGradient>
<linearGradient id="paint4_linear_983_2874" x1="62.94" y1="90.3207" x2="62.94" y2="137.726" gradientUnits="userSpaceOnUse">
<stop stop-color="#643AF3"/>
<stop offset="1" stop-color="#3F76ED"/>
</linearGradient>
<linearGradient id="paint5_linear_983_2874" x1="62.94" y1="90.3207" x2="62.94" y2="137.726" gradientUnits="userSpaceOnUse">
<stop stop-color="white"/>
<stop offset="1" stop-color="white" stop-opacity="0"/>
</linearGradient>
<linearGradient id="paint6_linear_983_2874" x1="181" y1="158" x2="181" y2="207" gradientUnits="userSpaceOnUse">
<stop stop-color="white"/>
<stop offset="1" stop-color="white" stop-opacity="0"/>
</linearGradient>
<linearGradient id="paint7_linear_983_2874" x1="80.3746" y1="163.155" x2="80.3746" y2="201.813" gradientUnits="userSpaceOnUse">
<stop stop-color="#A5CF6B"/>
<stop offset="1" stop-color="#34A685"/>
</linearGradient>
<linearGradient id="paint8_linear_983_2874" x1="80.3746" y1="163.155" x2="80.3746" y2="201.813" gradientUnits="userSpaceOnUse">
<stop stop-color="white"/>
<stop offset="1" stop-color="white" stop-opacity="0"/>
</linearGradient>
</defs>
</svg>
